# xmcd CD database file
# Copyright (C) 1993-1998 Ti Kan
#
# Track frame offsets:
#	150
#	18725
#	42350
#	72350
#	84200
#	100700
#	116075
#	131150
#	152075
#	177125
#	193700
#	210575
#
# Disc length: 3034 seconds
#
# Revision: 1
# Processed by: cddbd v1.4b41PL1 Copyright (c) Steve Scherf et al.
# Submitted via: CDValet v3.01 - Copyright (c) 1997 Greg Leichner
#
DISCID=a10bd80c
DTITLE=Chain - Blue Metal
DYEAR=1900
DGENRE=
TTITLE0=Wouldn't Have Her Any Other Way
TTITLE1=Nothing Unusual
TTITLE2=Walk That Walk
TTITLE3=G Slide
TTITLE4=Party
TTITLE5=Rumble
TTITLE6=Shuffle
TTITLE7=Back Stairs
TTITLE8=Can't Let Go
TTITLE9=City Life
TTITLE10=Jumbo
TTITLE11=Maddison Blues
EXTD=
EXTT0=
EXTT1=
EXTT2=
EXTT3=
EXTT4=
EXTT5=
EXTT6=
EXTT7=
EXTT8=
EXTT9=
EXTT10=
EXTT11=
PLAYORDER=
